<svg width="32" height="32" viewBox="0 0 32 32" fill="none" xmlns="http://www.w3.org/2000/svg">
<g id="Interface / Log_Out">
<path id="Vector" d="M15.9997 19.9999L19.9997 15.9999M19.9997 15.9999L15.9997 11.9999M19.9997 15.9999H5.33301M11.9997 9.6647V9.60018C11.9997 8.1067 11.9997 7.35941 12.2903 6.78898C12.546 6.28722 12.9536 5.87956 13.4554 5.6239C14.0258 5.33325 14.7731 5.33325 16.2666 5.33325H22.3999C23.8934 5.33325 24.6391 5.33325 25.2095 5.6239C25.7113 5.87956 26.1203 6.28722 26.376 6.78898C26.6663 7.35885 26.6663 8.10524 26.6663 9.5958V22.4047C26.6663 23.8952 26.6663 24.6406 26.376 25.2104C26.1203 25.7122 25.7113 26.1206 25.2095 26.3762C24.6397 26.6666 23.8943 26.6666 22.4038 26.6666H16.2622C14.7717 26.6666 14.0253 26.6666 13.4554 26.3762C12.9536 26.1206 12.546 25.7118 12.2903 25.21C11.9997 24.6396 11.9997 23.8934 11.9997 22.3999V22.3333" stroke="#585F74" stroke-width="2" stroke-linecap="round" stroke-linejoin="round"/>
</g>
</svg>
