<svg width="1920" height="960" viewBox="0 0 1920 960" fill="none" xmlns="http://www.w3.org/2000/svg">
<rect width="1920" height="960" fill="#8444B6"/>
<path opacity="0.5" d="M720.886 215H694.004V142.273H720.851C728.261 142.273 734.641 143.729 739.991 146.641C745.366 149.529 749.509 153.696 752.42 159.141C755.332 164.562 756.788 171.049 756.788 178.601C756.788 186.177 755.332 192.687 752.42 198.132C749.532 203.577 745.401 207.756 740.027 210.668C734.653 213.556 728.273 215 720.886 215ZM711.582 200.014H720.212C724.284 200.014 727.728 199.328 730.545 197.955C733.386 196.558 735.529 194.297 736.973 191.172C738.441 188.023 739.175 183.833 739.175 178.601C739.175 173.369 738.441 169.202 736.973 166.101C735.505 162.976 733.339 160.727 730.474 159.354C727.634 157.957 724.13 157.259 719.963 157.259H711.582V200.014ZM767.051 215V142.273H817.761V156.548H784.629V171.463H815.169V185.774H784.629V200.724H817.761V215H767.051ZM845.283 142.273L861.547 195.54H862.151L878.415 142.273H898.088L873.55 215H850.148L825.609 142.273H845.283ZM993.418 168.622H975.663C975.426 166.799 974.941 165.154 974.207 163.686C973.473 162.218 972.502 160.964 971.295 159.922C970.087 158.88 968.655 158.087 966.998 157.543C965.364 156.974 963.553 156.69 961.565 156.69C958.037 156.69 954.995 157.554 952.438 159.283C949.905 161.011 947.952 163.509 946.579 166.776C945.229 170.043 944.555 173.996 944.555 178.636C944.555 183.466 945.241 187.514 946.614 190.781C948.011 194.025 949.964 196.475 952.474 198.132C955.007 199.766 958.002 200.582 961.458 200.582C963.399 200.582 965.163 200.334 966.749 199.837C968.359 199.339 969.768 198.617 970.975 197.67C972.206 196.7 973.212 195.528 973.994 194.155C974.799 192.758 975.355 191.184 975.663 189.432L993.418 189.538C993.111 192.758 992.175 195.93 990.613 199.055C989.074 202.18 986.955 205.033 984.256 207.614C981.558 210.17 978.267 212.206 974.384 213.722C970.525 215.237 966.098 215.994 961.103 215.994C954.522 215.994 948.627 214.55 943.418 211.662C938.234 208.75 934.138 204.512 931.131 198.949C928.125 193.385 926.621 186.615 926.621 178.636C926.621 170.634 928.148 163.852 931.202 158.288C934.256 152.725 938.388 148.499 943.596 145.611C948.804 142.723 954.64 141.278 961.103 141.278C965.506 141.278 969.578 141.894 973.319 143.125C977.059 144.332 980.35 146.108 983.191 148.452C986.032 150.772 988.34 153.625 990.116 157.01C991.891 160.395 992.992 164.266 993.418 168.622ZM1017.35 215H998.461L1023 142.273H1046.4L1070.94 215H1052.05L1034.97 160.597H1034.4L1017.35 215ZM1014.83 186.378H1054.32V199.73H1014.83V186.378ZM1078.77 142.273H1100.54L1119 187.301H1119.86L1138.32 142.273H1160.09V215H1142.97V170.327H1142.37L1124.9 214.538H1113.96L1096.49 170.078H1095.89V215H1078.77V142.273ZM1171.06 215V142.273H1201.1C1206.54 142.273 1211.24 143.338 1215.2 145.469C1219.17 147.576 1222.24 150.523 1224.39 154.311C1226.55 158.075 1227.62 162.455 1227.62 167.45C1227.62 172.469 1226.52 176.861 1224.32 180.625C1222.14 184.366 1219.03 187.266 1214.98 189.325C1210.93 191.385 1206.13 192.415 1200.56 192.415H1182.03V178.565H1197.3C1199.95 178.565 1202.16 178.104 1203.94 177.18C1205.74 176.257 1207.1 174.967 1208.02 173.31C1208.95 171.629 1209.41 169.676 1209.41 167.45C1209.41 165.201 1208.95 163.26 1208.02 161.626C1207.1 159.969 1205.74 158.691 1203.94 157.791C1202.14 156.892 1199.93 156.442 1197.3 156.442H1188.63V215H1171.06Z" fill="white" fill-opacity="0.9"/>
<path d="M232.378 425.364V463.716H129.146V425.364H232.378ZM150.773 386.159H202.868V537.544C202.868 540.74 203.365 543.332 204.359 545.321C205.425 547.239 206.952 548.624 208.94 549.476C210.929 550.257 213.308 550.648 216.078 550.648C218.067 550.648 220.162 550.47 222.364 550.115C224.636 549.689 226.341 549.334 227.477 549.05L235.361 586.656C232.875 587.366 229.359 588.254 224.814 589.32C220.339 590.385 214.977 591.06 208.727 591.344C196.511 591.912 186.036 590.491 177.3 587.082C168.635 583.602 161.994 578.205 157.378 570.889C152.832 563.574 150.631 554.376 150.773 543.297V386.159ZM333.585 592.089C316.398 592.089 301.625 588.574 289.267 581.543C276.98 574.44 267.499 564.568 260.822 551.926C254.217 539.213 250.915 524.476 250.915 507.714C250.915 490.882 254.217 476.145 260.822 463.503C267.499 450.79 276.98 440.918 289.267 433.886C301.625 426.784 316.398 423.233 333.585 423.233C350.773 423.233 365.51 426.784 377.797 433.886C390.155 440.918 399.636 450.79 406.241 463.503C412.918 476.145 416.256 490.882 416.256 507.714C416.256 524.476 412.918 539.213 406.241 551.926C399.636 564.568 390.155 574.44 377.797 581.543C365.51 588.574 350.773 592.089 333.585 592.089ZM333.905 552.778C340.155 552.778 345.446 550.861 349.778 547.026C354.111 543.19 357.413 537.864 359.686 531.045C362.03 524.227 363.202 516.344 363.202 507.395C363.202 498.304 362.03 490.349 359.686 483.531C357.413 476.713 354.111 471.386 349.778 467.551C345.446 463.716 340.155 461.798 333.905 461.798C327.442 461.798 321.973 463.716 317.499 467.551C313.095 471.386 309.722 476.713 307.378 483.531C305.105 490.349 303.969 498.304 303.969 507.395C303.969 516.344 305.105 524.227 307.378 531.045C309.722 537.864 313.095 543.19 317.499 547.026C321.973 550.861 327.442 552.778 333.905 552.778ZM567.161 591.344C555.087 591.344 544.114 588.219 534.242 581.969C524.37 575.719 516.487 566.344 510.592 553.844C504.697 541.344 501.749 525.825 501.749 507.288C501.749 488.041 504.803 472.203 510.911 459.774C517.019 447.345 525.009 438.148 534.881 432.182C544.825 426.216 555.513 423.233 566.948 423.233C575.542 423.233 582.893 424.724 589.001 427.707C595.109 430.619 600.151 434.384 604.129 439C608.106 443.616 611.124 448.411 613.184 453.382H614.249V370.818H666.344V589H614.782V562.473H613.184C610.982 567.516 607.857 572.239 603.809 576.642C599.761 581.045 594.683 584.597 588.575 587.295C582.538 589.994 575.4 591.344 567.161 591.344ZM585.272 550.754C591.593 550.754 596.991 548.979 601.465 545.428C605.94 541.805 609.384 536.727 611.799 530.193C614.214 523.659 615.421 515.989 615.421 507.182C615.421 498.233 614.214 490.527 611.799 484.064C609.455 477.601 606.011 472.629 601.465 469.149C596.991 465.669 591.593 463.929 585.272 463.929C578.809 463.929 573.34 465.705 568.866 469.256C564.391 472.807 560.982 477.814 558.638 484.277C556.366 490.74 555.229 498.375 555.229 507.182C555.229 515.989 556.401 523.659 558.745 530.193C561.089 536.727 564.462 541.805 568.866 545.428C573.34 548.979 578.809 550.754 585.272 550.754ZM775.675 592.089C758.488 592.089 743.715 588.574 731.357 581.543C719.07 574.44 709.588 564.568 702.912 551.926C696.307 539.213 693.005 524.476 693.005 507.714C693.005 490.882 696.307 476.145 702.912 463.503C709.588 450.79 719.07 440.918 731.357 433.886C743.715 426.784 758.488 423.233 775.675 423.233C792.863 423.233 807.6 426.784 819.887 433.886C832.245 440.918 841.726 450.79 848.331 463.503C855.007 476.145 858.346 490.882 858.346 507.714C858.346 524.476 855.007 539.213 848.331 551.926C841.726 564.568 832.245 574.44 819.887 581.543C807.6 588.574 792.863 592.089 775.675 592.089ZM775.995 552.778C782.245 552.778 787.536 550.861 791.868 547.026C796.201 543.19 799.503 537.864 801.776 531.045C804.12 524.227 805.292 516.344 805.292 507.395C805.292 498.304 804.12 490.349 801.776 483.531C799.503 476.713 796.201 471.386 791.868 467.551C787.536 463.716 782.245 461.798 775.995 461.798C769.532 461.798 764.063 463.716 759.588 467.551C755.185 471.386 751.811 476.713 749.468 483.531C747.195 490.349 746.059 498.304 746.059 507.395C746.059 516.344 747.195 524.227 749.468 531.045C751.811 537.864 755.185 543.19 759.588 547.026C764.063 550.861 769.532 552.778 775.995 552.778ZM949.485 589V370.818H1001.58V453.382H1002.65C1004.78 448.411 1007.8 443.616 1011.7 439C1015.68 434.384 1020.72 430.619 1026.83 427.707C1033.01 424.724 1040.39 423.233 1048.99 423.233C1060.35 423.233 1070.97 426.216 1080.84 432.182C1090.79 438.148 1098.81 447.345 1104.92 459.774C1111.03 472.203 1114.08 488.041 1114.08 507.288C1114.08 525.825 1111.13 541.344 1105.24 553.844C1099.41 566.344 1091.53 575.719 1081.59 581.969C1071.72 588.219 1060.74 591.344 1048.67 591.344C1040.43 591.344 1033.29 589.994 1027.26 587.295C1021.22 584.597 1016.14 581.045 1012.02 576.642C1007.97 572.239 1004.85 567.516 1002.65 562.473H1001.05V589H949.485ZM1000.52 507.182C1000.52 515.989 1001.69 523.659 1004.03 530.193C1006.45 536.727 1009.89 541.805 1014.36 545.428C1018.91 548.979 1024.34 550.754 1030.66 550.754C1037.06 550.754 1042.49 548.979 1046.96 545.428C1051.44 541.805 1054.81 536.727 1057.08 530.193C1059.43 523.659 1060.6 515.989 1060.6 507.182C1060.6 498.375 1059.43 490.74 1057.08 484.277C1054.81 477.814 1051.44 472.807 1046.96 469.256C1042.56 465.705 1037.13 463.929 1030.66 463.929C1024.27 463.929 1018.84 465.669 1014.36 469.149C1009.89 472.629 1006.45 477.601 1004.03 484.064C1001.69 490.527 1000.52 498.233 1000.52 507.182ZM1217.76 592.089C1200.58 592.089 1185.8 588.574 1173.45 581.543C1161.16 574.44 1151.68 564.568 1145 551.926C1138.4 539.213 1135.09 524.476 1135.09 507.714C1135.09 490.882 1138.4 476.145 1145 463.503C1151.68 450.79 1161.16 440.918 1173.45 433.886C1185.8 426.784 1200.58 423.233 1217.76 423.233C1234.95 423.233 1249.69 426.784 1261.98 433.886C1274.33 440.918 1283.82 450.79 1290.42 463.503C1297.1 476.145 1300.44 490.882 1300.44 507.714C1300.44 524.476 1297.1 539.213 1290.42 551.926C1283.82 564.568 1274.33 574.44 1261.98 581.543C1249.69 588.574 1234.95 592.089 1217.76 592.089ZM1218.08 552.778C1224.33 552.778 1229.63 550.861 1233.96 547.026C1238.29 543.19 1241.59 537.864 1243.87 531.045C1246.21 524.227 1247.38 516.344 1247.38 507.395C1247.38 498.304 1246.21 490.349 1243.87 483.531C1241.59 476.713 1238.29 471.386 1233.96 467.551C1229.63 463.716 1224.33 461.798 1218.08 461.798C1211.62 461.798 1206.15 463.716 1201.68 467.551C1197.27 471.386 1193.9 476.713 1191.56 483.531C1189.28 490.349 1188.15 498.304 1188.15 507.395C1188.15 516.344 1189.28 524.227 1191.56 531.045C1193.9 537.864 1197.27 543.19 1201.68 547.026C1206.15 550.861 1211.62 552.778 1218.08 552.778ZM1373.25 591.77C1362.81 591.77 1353.54 590.03 1345.45 586.55C1337.42 582.999 1331.06 577.672 1326.38 570.57C1321.76 563.396 1319.45 554.412 1319.45 543.616C1319.45 534.526 1321.05 526.855 1324.25 520.605C1327.44 514.355 1331.85 509.277 1337.46 505.371C1343.07 501.464 1349.53 498.517 1356.85 496.528C1364.16 494.469 1371.97 493.084 1380.28 492.374C1389.59 491.521 1397.08 490.634 1402.76 489.71C1408.44 488.716 1412.56 487.331 1415.12 485.555C1417.75 483.709 1419.06 481.116 1419.06 477.778V477.246C1419.06 471.777 1417.18 467.551 1413.41 464.568C1409.65 461.585 1404.57 460.094 1398.18 460.094C1391.29 460.094 1385.75 461.585 1381.56 464.568C1377.37 467.551 1374.71 471.67 1373.57 476.926L1325.52 475.222C1326.94 465.278 1330.6 456.401 1336.5 448.588C1342.46 440.705 1350.63 434.526 1361 430.051C1371.44 425.506 1383.98 423.233 1398.61 423.233C1409.05 423.233 1418.67 424.476 1427.48 426.962C1436.28 429.376 1443.95 432.928 1450.49 437.615C1457.02 442.232 1462.07 447.913 1465.62 454.661C1469.24 461.408 1471.05 469.114 1471.05 477.778V589H1422.04V566.202H1420.77C1417.85 571.741 1414.13 576.429 1409.58 580.264C1405.11 584.099 1399.81 586.976 1393.71 588.893C1387.67 590.811 1380.85 591.77 1373.25 591.77ZM1389.34 557.679C1394.95 557.679 1399.99 556.543 1404.47 554.27C1409.01 551.997 1412.63 548.872 1415.33 544.895C1418.03 540.847 1419.38 536.159 1419.38 530.832V515.278C1417.89 516.06 1416.08 516.77 1413.95 517.409C1411.89 518.048 1409.62 518.652 1407.13 519.22C1404.64 519.788 1402.09 520.286 1399.46 520.712C1396.83 521.138 1394.31 521.528 1391.89 521.884C1386.99 522.665 1382.8 523.872 1379.32 525.506C1375.91 527.139 1373.29 529.27 1371.44 531.898C1369.66 534.455 1368.78 537.509 1368.78 541.06C1368.78 546.457 1370.69 550.577 1374.53 553.418C1378.44 556.259 1383.37 557.679 1389.34 557.679ZM1502.9 589V425.364H1553.51V455.193H1555.21C1558.19 444.398 1563.06 436.372 1569.81 431.116C1576.55 425.79 1584.4 423.126 1593.35 423.126C1595.77 423.126 1598.25 423.304 1600.81 423.659C1603.37 423.943 1605.74 424.405 1607.95 425.044V470.321C1605.46 469.469 1602.19 468.794 1598.14 468.297C1594.17 467.8 1590.62 467.551 1587.49 467.551C1581.31 467.551 1575.74 468.936 1570.77 471.706C1565.87 474.405 1561.99 478.205 1559.15 483.105C1556.38 487.935 1555 493.616 1555 500.151V589H1502.9ZM1680.44 591.344C1668.37 591.344 1657.4 588.219 1647.52 581.969C1637.65 575.719 1629.77 566.344 1623.87 553.844C1617.98 541.344 1615.03 525.825 1615.03 507.288C1615.03 488.041 1618.08 472.203 1624.19 459.774C1630.3 447.345 1638.29 438.148 1648.16 432.182C1658.11 426.216 1668.79 423.233 1680.23 423.233C1688.82 423.233 1696.17 424.724 1702.28 427.707C1708.39 430.619 1713.43 434.384 1717.41 439C1721.39 443.616 1724.41 448.411 1726.47 453.382H1727.53V370.818H1779.63V589H1728.06V562.473H1726.47C1724.26 567.516 1721.14 572.239 1717.09 576.642C1713.04 581.045 1707.96 584.597 1701.86 587.295C1695.82 589.994 1688.68 591.344 1680.44 591.344ZM1698.55 550.754C1704.87 550.754 1710.27 548.979 1714.75 545.428C1719.22 541.805 1722.67 536.727 1725.08 530.193C1727.5 523.659 1728.7 515.989 1728.7 507.182C1728.7 498.233 1727.5 490.527 1725.08 484.064C1722.74 477.601 1719.29 472.629 1714.75 469.149C1710.27 465.669 1704.87 463.929 1698.55 463.929C1692.09 463.929 1686.62 465.705 1682.15 469.256C1677.67 472.807 1674.26 477.814 1671.92 484.277C1669.65 490.74 1668.51 498.375 1668.51 507.182C1668.51 515.989 1669.68 523.659 1672.03 530.193C1674.37 536.727 1677.74 541.805 1682.15 545.428C1686.62 548.979 1692.09 550.754 1698.55 550.754Z" fill="white" fill-opacity="0.9"/>
</svg>
